<svg version="1.1" width="350" height="350" viewBox="0.0 0.0 980.6640419947506 728.5301837270341" fill="none" stroke="none" stroke-linecap="square" stroke-miterlimit="10" xmlns:xlink="http://www.w3.org/1999/xlink" xmlns="http://www.w3.org/2000/svg" style=""><clipPath id="p.0"><path d="m0 0l980.66406 0l0 728.5302l-980.66406 0l0 -728.5302z" clip-rule="nonzero" class="NisYwbtj_0"></path></clipPath><g clip-path="url(#p.0)"><path fill="#000000" fill-opacity="0.0" d="m0 0l980.66406 0l0 728.5302l-980.66406 0z" fill-rule="evenodd" class="NisYwbtj_1"></path><path fill="#000000" fill-opacity="0.0" d="m475.32285 20.065617l0 0l0 0c7.6808167 0 15.047089 3.0512009 20.478241 8.482372c5.431183 5.4311714 8.482391 12.7974205 8.482391 20.478256l0 257.31244c0 7.059326 -5.722748 12.782043 -12.782074 12.782043l-32.357147 0c-7.059326 0 -12.782043 -5.7227173 -12.782043 -12.782043l0 -257.31244l0 0c0 -15.994514 12.966095 -28.960629 28.960632 -28.960629z" fill-rule="evenodd" class="NisYwbtj_2"></path><path stroke="#ffffff" stroke-width="16.0" stroke-linejoin="round" stroke-linecap="butt" d="m475.32285 20.065617l0 0l0 0c7.6808167 0 15.047089 3.0512009 20.478241 8.482372c5.431183 5.4311714 8.482391 12.7974205 8.482391 20.478256l0 257.31244c0 7.059326 -5.722748 12.782043 -12.782074 12.782043l-32.357147 0c-7.059326 0 -12.782043 -5.7227173 -12.782043 -12.782043l0 -257.31244l0 0c0 -15.994514 12.966095 -28.960629 28.960632 -28.960629z" fill-rule="evenodd" class="NisYwbtj_3"></path><path fill="#000000" fill-opacity="0.0" d="m564.17584 80.13911l0 0l0 0c7.680847 0 15.047119 3.0512009 20.478271 8.482376c5.4311523 5.4311676 8.482361 12.797417 8.482361 20.478256l0 197.24945c0 7.059326 -5.7227173 12.782043 -12.782043 12.782043l-32.357117 0c-7.059387 0 -12.7821045 -5.7227173 -12.7821045 -12.782043l0 -197.24945l0 0c0 -15.994514 12.9661255 -28.960632 28.960632 -28.960632z" fill-rule="evenodd" class="NisYwbtj_4"></path><path stroke="#ffffff" stroke-width="16.0" stroke-linejoin="round" stroke-linecap="butt" d="m564.17584 80.13911l0 0l0 0c7.680847 0 15.047119 3.0512009 20.478271 8.482376c5.4311523 5.4311676 8.482361 12.797417 8.482361 20.478256l0 197.24945c0 7.059326 -5.7227173 12.782043 -12.782043 12.782043l-32.357117 0c-7.059387 0 -12.7821045 -5.7227173 -12.7821045 -12.782043l0 -197.24945l0 0c0 -15.994514 12.9661255 -28.960632 28.960632 -28.960632z" fill-rule="evenodd" class="NisYwbtj_5"></path><path fill="#000000" fill-opacity="0.0" d="m658.1417 121.03937l0 0l0 0c7.680847 0 15.047119 3.0512009 20.478271 8.482376c5.4311523 5.4311676 8.482361 12.797424 8.482361 20.478256l0 156.33606c0 7.059326 -5.7227173 12.782043 -12.782043 12.782043l-32.357117 0c-7.059387 0 -12.7821045 -5.7227173 -12.7821045 -12.782043l0 -156.33606l0 0c0 -15.994507 12.9661255 -28.960632 28.960632 -28.960632z" fill-rule="evenodd" class="NisYwbtj_6"></path><path stroke="#ffffff" stroke-width="16.0" stroke-linejoin="round" stroke-linecap="butt" d="m658.1417 121.03937l0 0l0 0c7.680847 0 15.047119 3.0512009 20.478271 8.482376c5.4311523 5.4311676 8.482361 12.797424 8.482361 20.478256l0 156.33606c0 7.059326 -5.7227173 12.782043 -12.782043 12.782043l-32.357117 0c-7.059387 0 -12.7821045 -5.7227173 -12.7821045 -12.782043l0 -156.33606l0 0c0 -15.994507 12.9661255 -28.960632 28.960632 -28.960632z" fill-rule="evenodd" class="NisYwbtj_7"></path><path fill="#000000" fill-opacity="0.0" d="m381.35696 80.125984l0 0l0 0c7.6808167 0 15.047089 3.0512009 20.478241 8.482368c5.431183 5.431175 8.482391 12.797424 8.482391 20.478264l0 197.24945c0 7.059326 -5.722748 12.782043 -12.782074 12.782043l-32.357147 0c-7.059326 0 -12.782043 -5.7227173 -12.782043 -12.782043l0 -197.24945l0 0c0 -15.994514 12.966095 -28.960632 28.960632 -28.960632z" fill-rule="evenodd" class="NisYwbtj_8"></path><path stroke="#ffffff" stroke-width="16.0" stroke-linejoin="round" stroke-linecap="butt" d="m381.35696 80.125984l0 0l0 0c7.6808167 0 15.047089 3.0512009 20.478241 8.482368c5.431183 5.431175 8.482391 12.797424 8.482391 20.478264l0 197.24945c0 7.059326 -5.722748 12.782043 -12.782074 12.782043l-32.357147 0c-7.059326 0 -12.782043 -5.7227173 -12.782043 -12.782043l0 -197.24945l0 0c0 -15.994514 12.966095 -28.960632 28.960632 -28.960632z" fill-rule="evenodd" class="NisYwbtj_9"></path><path fill="#000000" fill-opacity="0.0" d="m226.75037 295.28592l0 0l0 0c7.1295166 -2.8568115 15.102356 -2.764618 22.164597 0.25631714c7.0622406 3.0209045 12.635361 8.723114 15.493362 15.852173l52.310333 130.4844c2.6267395 6.552185 -0.55584717 13.99231 -7.10849 16.617981l-30.034576 12.034943c-6.552643 2.6256714 -13.993988 -0.55740356 -16.620728 -7.109619l-52.310333 -130.4844l0 0c-5.9514465 -14.8454895 1.2593689 -31.702759 16.105835 -37.651794z" fill-rule="evenodd" class="NisYwbtj_10"></path><path stroke="#ffffff" stroke-width="16.0" stroke-linejoin="round" stroke-linecap="butt" d="m226.75037 295.28592l0 0l0 0c7.1295166 -2.8568115 15.102356 -2.764618 22.164597 0.25631714c7.0622406 3.0209045 12.635361 8.723114 15.493362 15.852173l52.310333 130.4844c2.6267395 6.552185 -0.55584717 13.99231 -7.10849 16.617981l-30.034576 12.034943c-6.552643 2.6256714 -13.993988 -0.55740356 -16.620728 -7.109619l-52.310333 -130.4844l0 0c-5.9514465 -14.8454895 1.2593689 -31.702759 16.105835 -37.651794z" fill-rule="evenodd" class="NisYwbtj_11"></path><path fill="#000000" fill-opacity="0.0" d="m453.16534 195.16011l13.417328 0l0 0c7.410187 0 13.417328 4.864929 13.417328 10.866135c0 6.0012054 -6.007141 10.86615 -13.417328 10.86615l-13.417328 0z" fill-rule="evenodd" class="NisYwbtj_12"></path><path stroke="#ffffff" stroke-width="8.0" stroke-linejoin="round" stroke-linecap="butt" d="m453.16534 195.16011l13.417328 0l0 0c7.410187 0 13.417328 4.864929 13.417328 10.866135c0 6.0012054 -6.007141 10.86615 -13.417328 10.86615l-13.417328 0z" fill-rule="evenodd" class="NisYwbtj_13"></path><path fill="#000000" fill-opacity="0.0" d="m541.1732 181.76378l13.417358 0l0 0c7.4101562 0 13.417297 4.8649445 13.417297 10.86615c0 6.00119 -6.007141 10.866135 -13.417297 10.866135l-13.417358 0z" fill-rule="evenodd" class="NisYwbtj_14"></path><path stroke="#ffffff" stroke-width="8.0" stroke-linejoin="round" stroke-linecap="butt" d="m541.1732 181.76378l13.417358 0l0 0c7.4101562 0 13.417297 4.8649445 13.417297 10.86615c0 6.00119 -6.007141 10.866135 -13.417297 10.866135l-13.417358 0z" fill-rule="evenodd" class="NisYwbtj_15"></path><path fill="#000000" fill-opacity="0.0" d="m679.10236 225.22835l-13.417297 0l0 0c-7.4102173 0 -13.417358 -4.8649445 -13.417358 -10.86615c0 -6.00119 6.007141 -10.866135 13.417358 -10.866135l13.417297 0z" fill-rule="evenodd" class="NisYwbtj_16"></path><path stroke="#ffffff" stroke-width="8.0" stroke-linejoin="round" stroke-linecap="butt" d="m679.10236 225.22835l-13.417297 0l0 0c-7.4102173 0 -13.417358 -4.8649445 -13.417358 -10.86615c0 -6.00119 6.007141 -10.866135 13.417358 -10.866135l13.417297 0z" fill-rule="evenodd" class="NisYwbtj_17"></path><path fill="#000000" fill-opacity="0.0" d="m409.47244 216.8924l-13.417328 0l0 0c-7.410187 0 -13.417328 -4.8649445 -13.417328 -10.86615c0 -6.0012054 6.007141 -10.866135 13.417328 -10.866135l13.417328 0z" fill-rule="evenodd" class="NisYwbtj_18"></path><path stroke="#ffffff" stroke-width="8.0" stroke-linejoin="round" stroke-linecap="butt" d="m409.47244 216.8924l-13.417328 0l0 0c-7.410187 0 -13.417328 -4.8649445 -13.417328 -10.86615c0 -6.0012054 6.007141 -10.866135 13.417328 -10.866135l13.417328 0z" fill-rule="evenodd" class="NisYwbtj_19"></path><path fill="#000000" fill-opacity="0.0" d="m352.39633 403.96326l0 0c0 -24.280243 19.683014 -43.963257 43.963257 -43.963257l245.96323 0c11.65979 0 22.842041 4.631836 31.086731 12.876526c8.24469 8.24472 12.876526 19.42694 12.876526 31.086731l0 175.85303c0 24.280212 -19.682983 43.963257 -43.963257 43.963257l-245.96323 0l0 0c-24.280243 0 -43.963257 -19.683044 -43.963257 -43.963257z" fill-rule="evenodd" class="NisYwbtj_20"></path><path stroke="#ffffff" stroke-width="12.0" stroke-linejoin="round" stroke-linecap="butt" d="m352.39633 403.96326l0 0c0 -24.280243 19.683014 -43.963257 43.963257 -43.963257l245.96323 0c11.65979 0 22.842041 4.631836 31.086731 12.876526c8.24469 8.24472 12.876526 19.42694 12.876526 31.086731l0 175.85303c0 24.280212 -19.682983 43.963257 -43.963257 43.963257l-245.96323 0l0 0c-24.280243 0 -43.963257 -19.683044 -43.963257 -43.963257z" fill-rule="evenodd" class="NisYwbtj_21"></path><path fill="#000000" fill-opacity="0.0" d="m583.02625 479.021l0 32.414703l-47.811035 47.81363l0 26.740173" fill-rule="evenodd" class="NisYwbtj_22"></path><path stroke="#ffffff" stroke-width="12.0" stroke-linejoin="round" stroke-linecap="butt" d="m583.02625 479.021l0 32.414703l-47.811035 47.81363l0 26.740173" fill-rule="evenodd" class="NisYwbtj_23"></path><path fill="#000000" fill-opacity="0.0" d="m435.2771 511.81628l0 19.960938l36.83838 29.443665l0 16.466614" fill-rule="evenodd" class="NisYwbtj_24"></path><path stroke="#ffffff" stroke-width="12.0" stroke-linejoin="round" stroke-linecap="butt" d="m435.2771 511.81628l0 19.960938l36.83838 29.443665l0 16.466614" fill-rule="evenodd" class="NisYwbtj_25"></path><path fill="#000000" fill-opacity="0.0" d="m409.47244 480.91602l0 0c0 -14.002808 11.351532 -25.35434 25.35434 -25.35434l0 0c6.724365 0 13.17334 2.6712646 17.928223 7.426117c4.7548523 4.7548523 7.4260864 11.203827 7.4260864 17.928223l0 0c0 14.002808 -11.351501 25.35434 -25.35431 25.35434l0 0c-14.002808 0 -25.35434 -11.351532 -25.35434 -25.35434z" fill-rule="evenodd" class="NisYwbtj_26"></path><path stroke="#ffffff" stroke-width="12.0" stroke-linejoin="round" stroke-linecap="butt" d="m409.47244 480.91602l0 0c0 -14.002808 11.351532 -25.35434 25.35434 -25.35434l0 0c6.724365 0 13.17334 2.6712646 17.928223 7.426117c4.7548523 4.7548523 7.4260864 11.203827 7.4260864 17.928223l0 0c0 14.002808 -11.351501 25.35434 -25.35431 25.35434l0 0c-14.002808 0 -25.35434 -11.351532 -25.35434 -25.35434z" fill-rule="evenodd" class="NisYwbtj_27"></path><path fill="#000000" fill-opacity="0.0" d="m558.2677 449.93176l0 0c0 -14.002808 11.3515625 -25.35434 25.35437 -25.35434l0 0c6.724365 0 13.17334 2.6712646 17.928223 7.426117c4.754822 4.7548523 7.4260864 11.203827 7.4260864 17.928223l0 0c0 14.002808 -11.351501 25.35434 -25.35431 25.35434l0 0c-14.002808 0 -25.35437 -11.351532 -25.35437 -25.35434z" fill-rule="evenodd" class="NisYwbtj_28"></path><path stroke="#ffffff" stroke-width="12.0" stroke-linejoin="round" stroke-linecap="butt" d="m558.2677 449.93176l0 0c0 -14.002808 11.3515625 -25.35434 25.35437 -25.35434l0 0c6.724365 0 13.17334 2.6712646 17.928223 7.426117c4.754822 4.7548523 7.4260864 11.203827 7.4260864 17.928223l0 0c0 14.002808 -11.351501 25.35434 -25.35431 25.35434l0 0c-14.002808 0 -25.35437 -11.351532 -25.35437 -25.35434z" fill-rule="evenodd" class="NisYwbtj_29"></path><path fill="#000000" fill-opacity="0.0" d="m500.74802 475.8504l0 106.96063" fill-rule="evenodd" class="NisYwbtj_30"></path><path stroke="#ffffff" stroke-width="12.0" stroke-linejoin="round" stroke-linecap="butt" d="m500.74802 475.8504l0 106.96063" fill-rule="evenodd" class="NisYwbtj_31"></path><path fill="#000000" fill-opacity="0.0" d="m619.7113 496.1391l0 51.653564" fill-rule="evenodd" class="NisYwbtj_32"></path><path stroke="#ffffff" stroke-width="12.0" stroke-linejoin="round" stroke-linecap="butt" d="m619.7113 496.1391l0 51.653564" fill-rule="evenodd" class="NisYwbtj_33"></path><path fill="#000000" fill-opacity="0.0" d="m389.16534 398.38583l84.8504 0" fill-rule="evenodd" class="NisYwbtj_34"></path><path stroke="#ffffff" stroke-width="12.0" stroke-linejoin="round" stroke-linecap="butt" d="m389.16534 398.38583l84.8504 0" fill-rule="evenodd" class="NisYwbtj_35"></path><path fill="#000000" fill-opacity="0.0" d="m500.74802 399.3071l18.456696 0" fill-rule="evenodd" class="NisYwbtj_36"></path><path stroke="#ffffff" stroke-width="12.0" stroke-linejoin="round" stroke-linecap="butt" d="m500.74802 399.3071l18.456696 0" fill-rule="evenodd" class="NisYwbtj_37"></path><path fill="#000000" fill-opacity="0.0" d="m400.23096 556.08136l0 19.370056" fill-rule="evenodd" class="NisYwbtj_38"></path><path stroke="#ffffff" stroke-width="12.0" stroke-linejoin="round" stroke-linecap="butt" d="m400.23096 556.08136l0 19.370056" fill-rule="evenodd" class="NisYwbtj_39"></path><path fill="#000000" fill-opacity="0.0" d="m294.5929 464.51428l57.795258 27.370087" fill-rule="evenodd" class="NisYwbtj_40"></path><path stroke="#ffffff" stroke-width="12.0" stroke-linejoin="round" stroke-linecap="butt" d="m294.5929 464.51428l57.795258 27.370087" fill-rule="evenodd" class="NisYwbtj_41"></path><path fill="#000000" fill-opacity="0.0" d="m389.16534 319.74802l0 39.62207" fill-rule="evenodd" class="NisYwbtj_42"></path><path stroke="#ffffff" stroke-width="12.0" stroke-linejoin="round" stroke-linecap="butt" d="m389.16534 319.74802l0 39.62207" fill-rule="evenodd" class="NisYwbtj_43"></path><path fill="#000000" fill-opacity="0.0" d="m480.0 319.74802l0 39.62207" fill-rule="evenodd" class="NisYwbtj_44"></path><path stroke="#ffffff" stroke-width="12.0" stroke-linejoin="round" stroke-linecap="butt" d="m480.0 319.74802l0 39.62207" fill-rule="evenodd" class="NisYwbtj_45"></path><path fill="#000000" fill-opacity="0.0" d="m572.1102 319.7467l0 39.62207" fill-rule="evenodd" class="NisYwbtj_46"></path><path stroke="#ffffff" stroke-width="12.0" stroke-linejoin="round" stroke-linecap="butt" d="m572.1102 319.7467l0 39.62207" fill-rule="evenodd" class="NisYwbtj_47"></path><path fill="#000000" fill-opacity="0.0" d="m658.1417 319.7467l0 39.62207" fill-rule="evenodd" class="NisYwbtj_48"></path><path stroke="#ffffff" stroke-width="12.0" stroke-linejoin="round" stroke-linecap="butt" d="m658.1417 319.7467l0 39.62207" fill-rule="evenodd" class="NisYwbtj_49"></path><path fill="#000000" fill-opacity="0.0" d="m430.3491 644.52454l0 0c0 -11.457153 9.287842 -20.744995 20.744995 -20.744995l136.49423 0c5.501892 0 10.778503 2.185608 14.668945 6.07605c3.890442 3.890442 6.07605 9.167053 6.07605 14.668945l0 38.73047c0 11.457153 -9.287842 20.744995 -20.744995 20.744995l-136.49423 0c-11.457153 0 -20.744995 -9.287842 -20.744995 -20.744995z" fill-rule="evenodd" class="NisYwbtj_50"></path><path stroke="#ffffff" stroke-width="12.0" stroke-linejoin="round" stroke-linecap="butt" d="m430.3491 644.52454l0 0c0 -11.457153 9.287842 -20.744995 20.744995 -20.744995l136.49423 0c5.501892 0 10.778503 2.185608 14.668945 6.07605c3.890442 3.890442 6.07605 9.167053 6.07605 14.668945l0 38.73047c0 11.457153 -9.287842 20.744995 -20.744995 20.744995l-136.49423 0c-11.457153 0 -20.744995 -9.287842 -20.744995 -20.744995z" fill-rule="evenodd" class="NisYwbtj_51"></path></g><style data-made-with="vivus-instant">.NisYwbtj_0{stroke-dasharray:3419 3421;stroke-dashoffset:3420;animation:NisYwbtj_draw_0 7200ms ease-in-out 0ms infinite,NisYwbtj_fade 7200ms linear 0ms infinite;}.NisYwbtj_1{stroke-dasharray:3419 3421;stroke-dashoffset:3420;animation:NisYwbtj_draw_1 7200ms ease-in-out 0ms infinite,NisYwbtj_fade 7200ms linear 0ms infinite;}.NisYwbtj_2{stroke-dasharray:679 681;stroke-dashoffset:680;animation:NisYwbtj_draw_2 7200ms ease-in-out 0ms infinite,NisYwbtj_fade 7200ms linear 0ms infinite;}.NisYwbtj_3{stroke-dasharray:679 681;stroke-dashoffset:680;animation:NisYwbtj_draw_3 7200ms ease-in-out 0ms infinite,NisYwbtj_fade 7200ms linear 0ms infinite;}.NisYwbtj_4{stroke-dasharray:559 561;stroke-dashoffset:560;animation:NisYwbtj_draw_4 7200ms ease-in-out 0ms infinite,NisYwbtj_fade 7200ms linear 0ms infinite;}.NisYwbtj_5{stroke-dasharray:559 561;stroke-dashoffset:560;animation:NisYwbtj_draw_5 7200ms ease-in-out 0ms infinite,NisYwbtj_fade 7200ms linear 0ms infinite;}.NisYwbtj_6{stroke-dasharray:477 479;stroke-dashoffset:478;animation:NisYwbtj_draw_6 7200ms ease-in-out 0ms infinite,NisYwbtj_fade 7200ms linear 0ms infinite;}.NisYwbtj_7{stroke-dasharray:477 479;stroke-dashoffset:478;animation:NisYwbtj_draw_7 7200ms ease-in-out 0ms infinite,NisYwbtj_fade 7200ms linear 0ms infinite;}.NisYwbtj_8{stroke-dasharray:559 561;stroke-dashoffset:560;animation:NisYwbtj_draw_8 7200ms ease-in-out 0ms infinite,NisYwbtj_fade 7200ms linear 0ms infinite;}.NisYwbtj_9{stroke-dasharray:559 561;stroke-dashoffset:560;animation:NisYwbtj_draw_9 7200ms ease-in-out 0ms infinite,NisYwbtj_fade 7200ms linear 0ms infinite;}.NisYwbtj_10{stroke-dasharray:445 447;stroke-dashoffset:446;animation:NisYwbtj_draw_10 7200ms ease-in-out 0ms infinite,NisYwbtj_fade 7200ms linear 0ms infinite;}.NisYwbtj_11{stroke-dasharray:445 447;stroke-dashoffset:446;animation:NisYwbtj_draw_11 7200ms ease-in-out 0ms infinite,NisYwbtj_fade 7200ms linear 0ms infinite;}.NisYwbtj_12{stroke-dasharray:87 89;stroke-dashoffset:88;animation:NisYwbtj_draw_12 7200ms ease-in-out 0ms infinite,NisYwbtj_fade 7200ms linear 0ms infinite;}.NisYwbtj_13{stroke-dasharray:87 89;stroke-dashoffset:88;animation:NisYwbtj_draw_13 7200ms ease-in-out 0ms infinite,NisYwbtj_fade 7200ms linear 0ms infinite;}.NisYwbtj_14{stroke-dasharray:87 89;stroke-dashoffset:88;animation:NisYwbtj_draw_14 7200ms ease-in-out 0ms infinite,NisYwbtj_fade 7200ms linear 0ms infinite;}.NisYwbtj_15{stroke-dasharray:87 89;stroke-dashoffset:88;animation:NisYwbtj_draw_15 7200ms ease-in-out 0ms infinite,NisYwbtj_fade 7200ms linear 0ms infinite;}.NisYwbtj_16{stroke-dasharray:87 89;stroke-dashoffset:88;animation:NisYwbtj_draw_16 7200ms ease-in-out 0ms infinite,NisYwbtj_fade 7200ms linear 0ms infinite;}.NisYwbtj_17{stroke-dasharray:87 89;stroke-dashoffset:88;animation:NisYwbtj_draw_17 7200ms ease-in-out 0ms infinite,NisYwbtj_fade 7200ms linear 0ms infinite;}.NisYwbtj_18{stroke-dasharray:87 89;stroke-dashoffset:88;animation:NisYwbtj_draw_18 7200ms ease-in-out 0ms infinite,NisYwbtj_fade 7200ms linear 0ms infinite;}.NisYwbtj_19{stroke-dasharray:87 89;stroke-dashoffset:88;animation:NisYwbtj_draw_19 7200ms ease-in-out 0ms infinite,NisYwbtj_fade 7200ms linear 0ms infinite;}.NisYwbtj_20{stroke-dasharray:1120 1122;stroke-dashoffset:1121;animation:NisYwbtj_draw_20 7200ms ease-in-out 0ms infinite,NisYwbtj_fade 7200ms linear 0ms infinite;}.NisYwbtj_21{stroke-dasharray:1120 1122;stroke-dashoffset:1121;animation:NisYwbtj_draw_21 7200ms ease-in-out 0ms infinite,NisYwbtj_fade 7200ms linear 0ms infinite;}.NisYwbtj_22{stroke-dasharray:127 129;stroke-dashoffset:128;animation:NisYwbtj_draw_22 7200ms ease-in-out 0ms infinite,NisYwbtj_fade 7200ms linear 0ms infinite;}.NisYwbtj_23{stroke-dasharray:127 129;stroke-dashoffset:128;animation:NisYwbtj_draw_23 7200ms ease-in-out 0ms infinite,NisYwbtj_fade 7200ms linear 0ms infinite;}.NisYwbtj_24{stroke-dasharray:84 86;stroke-dashoffset:85;animation:NisYwbtj_draw_24 7200ms ease-in-out 0ms infinite,NisYwbtj_fade 7200ms linear 0ms infinite;}.NisYwbtj_25{stroke-dasharray:84 86;stroke-dashoffset:85;animation:NisYwbtj_draw_25 7200ms ease-in-out 0ms infinite,NisYwbtj_fade 7200ms linear 0ms infinite;}.NisYwbtj_26{stroke-dasharray:160 162;stroke-dashoffset:161;animation:NisYwbtj_draw_26 7200ms ease-in-out 0ms infinite,NisYwbtj_fade 7200ms linear 0ms infinite;}.NisYwbtj_27{stroke-dasharray:160 162;stroke-dashoffset:161;animation:NisYwbtj_draw_27 7200ms ease-in-out 0ms infinite,NisYwbtj_fade 7200ms linear 0ms infinite;}.NisYwbtj_28{stroke-dasharray:160 162;stroke-dashoffset:161;animation:NisYwbtj_draw_28 7200ms ease-in-out 0ms infinite,NisYwbtj_fade 7200ms linear 0ms infinite;}.NisYwbtj_29{stroke-dasharray:160 162;stroke-dashoffset:161;animation:NisYwbtj_draw_29 7200ms ease-in-out 0ms infinite,NisYwbtj_fade 7200ms linear 0ms infinite;}.NisYwbtj_30{stroke-dasharray:107 109;stroke-dashoffset:108;animation:NisYwbtj_draw_30 7200ms ease-in-out 0ms infinite,NisYwbtj_fade 7200ms linear 0ms infinite;}.NisYwbtj_31{stroke-dasharray:107 109;stroke-dashoffset:108;animation:NisYwbtj_draw_31 7200ms ease-in-out 0ms infinite,NisYwbtj_fade 7200ms linear 0ms infinite;}.NisYwbtj_32{stroke-dasharray:52 54;stroke-dashoffset:53;animation:NisYwbtj_draw_32 7200ms ease-in-out 0ms infinite,NisYwbtj_fade 7200ms linear 0ms infinite;}.NisYwbtj_33{stroke-dasharray:52 54;stroke-dashoffset:53;animation:NisYwbtj_draw_33 7200ms ease-in-out 0ms infinite,NisYwbtj_fade 7200ms linear 0ms infinite;}.NisYwbtj_34{stroke-dasharray:85 87;stroke-dashoffset:86;animation:NisYwbtj_draw_34 7200ms ease-in-out 0ms infinite,NisYwbtj_fade 7200ms linear 0ms infinite;}.NisYwbtj_35{stroke-dasharray:85 87;stroke-dashoffset:86;animation:NisYwbtj_draw_35 7200ms ease-in-out 0ms infinite,NisYwbtj_fade 7200ms linear 0ms infinite;}.NisYwbtj_36{stroke-dasharray:19 21;stroke-dashoffset:20;animation:NisYwbtj_draw_36 7200ms ease-in-out 0ms infinite,NisYwbtj_fade 7200ms linear 0ms infinite;}.NisYwbtj_37{stroke-dasharray:19 21;stroke-dashoffset:20;animation:NisYwbtj_draw_37 7200ms ease-in-out 0ms infinite,NisYwbtj_fade 7200ms linear 0ms infinite;}.NisYwbtj_38{stroke-dasharray:20 22;stroke-dashoffset:21;animation:NisYwbtj_draw_38 7200ms ease-in-out 0ms infinite,NisYwbtj_fade 7200ms linear 0ms infinite;}.NisYwbtj_39{stroke-dasharray:20 22;stroke-dashoffset:21;animation:NisYwbtj_draw_39 7200ms ease-in-out 0ms infinite,NisYwbtj_fade 7200ms linear 0ms infinite;}.NisYwbtj_40{stroke-dasharray:64 66;stroke-dashoffset:65;animation:NisYwbtj_draw_40 7200ms ease-in-out 0ms infinite,NisYwbtj_fade 7200ms linear 0ms infinite;}.NisYwbtj_41{stroke-dasharray:64 66;stroke-dashoffset:65;animation:NisYwbtj_draw_41 7200ms ease-in-out 0ms infinite,NisYwbtj_fade 7200ms linear 0ms infinite;}.NisYwbtj_42{stroke-dasharray:40 42;stroke-dashoffset:41;animation:NisYwbtj_draw_42 7200ms ease-in-out 0ms infinite,NisYwbtj_fade 7200ms linear 0ms infinite;}.NisYwbtj_43{stroke-dasharray:40 42;stroke-dashoffset:41;animation:NisYwbtj_draw_43 7200ms ease-in-out 0ms infinite,NisYwbtj_fade 7200ms linear 0ms infinite;}.NisYwbtj_44{stroke-dasharray:40 42;stroke-dashoffset:41;animation:NisYwbtj_draw_44 7200ms ease-in-out 0ms infinite,NisYwbtj_fade 7200ms linear 0ms infinite;}.NisYwbtj_45{stroke-dasharray:40 42;stroke-dashoffset:41;animation:NisYwbtj_draw_45 7200ms ease-in-out 0ms infinite,NisYwbtj_fade 7200ms linear 0ms infinite;}.NisYwbtj_46{stroke-dasharray:40 42;stroke-dashoffset:41;animation:NisYwbtj_draw_46 7200ms ease-in-out 0ms infinite,NisYwbtj_fade 7200ms linear 0ms infinite;}.NisYwbtj_47{stroke-dasharray:40 42;stroke-dashoffset:41;animation:NisYwbtj_draw_47 7200ms ease-in-out 0ms infinite,NisYwbtj_fade 7200ms linear 0ms infinite;}.NisYwbtj_48{stroke-dasharray:40 42;stroke-dashoffset:41;animation:NisYwbtj_draw_48 7200ms ease-in-out 0ms infinite,NisYwbtj_fade 7200ms linear 0ms infinite;}.NisYwbtj_49{stroke-dasharray:40 42;stroke-dashoffset:41;animation:NisYwbtj_draw_49 7200ms ease-in-out 0ms infinite,NisYwbtj_fade 7200ms linear 0ms infinite;}.NisYwbtj_50{stroke-dasharray:481 483;stroke-dashoffset:482;animation:NisYwbtj_draw_50 7200ms ease-in-out 0ms infinite,NisYwbtj_fade 7200ms linear 0ms infinite;}.NisYwbtj_51{stroke-dasharray:481 483;stroke-dashoffset:482;animation:NisYwbtj_draw_51 7200ms ease-in-out 0ms infinite,NisYwbtj_fade 7200ms linear 0ms infinite;}@keyframes NisYwbtj_draw{100%{stroke-dashoffset:0;}}@keyframes NisYwbtj_fade{0%{stroke-opacity:1;}94.44444444444444%{stroke-opacity:1;}100%{stroke-opacity:0;}}@keyframes NisYwbtj_draw_0{11.11111111111111%{stroke-dashoffset: 3420}38.88888888888889%{ stroke-dashoffset: 0;}100%{ stroke-dashoffset: 0;}}@keyframes NisYwbtj_draw_1{11.383442265795207%{stroke-dashoffset: 3420}39.16122004357298%{ stroke-dashoffset: 0;}100%{ stroke-dashoffset: 0;}}@keyframes NisYwbtj_draw_2{11.655773420479303%{stroke-dashoffset: 680}39.43355119825708%{ stroke-dashoffset: 0;}100%{ stroke-dashoffset: 0;}}@keyframes NisYwbtj_draw_3{11.928104575163399%{stroke-dashoffset: 680}39.70588235294118%{ stroke-dashoffset: 0;}100%{ stroke-dashoffset: 0;}}@keyframes NisYwbtj_draw_4{12.200435729847497%{stroke-dashoffset: 560}39.97821350762527%{ stroke-dashoffset: 0;}100%{ stroke-dashoffset: 0;}}@keyframes NisYwbtj_draw_5{12.47276688453159%{stroke-dashoffset: 560}40.250544662309366%{ stroke-dashoffset: 0;}100%{ stroke-dashoffset: 0;}}@keyframes NisYwbtj_draw_6{12.745098039215685%{stroke-dashoffset: 478}40.52287581699346%{ stroke-dashoffset: 0;}100%{ stroke-dashoffset: 0;}}@keyframes NisYwbtj_draw_7{13.017429193899781%{stroke-dashoffset: 478}40.79520697167756%{ stroke-dashoffset: 0;}100%{ stroke-dashoffset: 0;}}@keyframes NisYwbtj_draw_8{13.28976034858388%{stroke-dashoffset: 560}41.067538126361654%{ stroke-dashoffset: 0;}100%{ stroke-dashoffset: 0;}}@keyframes NisYwbtj_draw_9{13.562091503267974%{stroke-dashoffset: 560}41.33986928104576%{ stroke-dashoffset: 0;}100%{ stroke-dashoffset: 0;}}@keyframes NisYwbtj_draw_10{13.83442265795207%{stroke-dashoffset: 446}41.61220043572985%{ stroke-dashoffset: 0;}100%{ stroke-dashoffset: 0;}}@keyframes NisYwbtj_draw_11{14.106753812636166%{stroke-dashoffset: 446}41.88453159041395%{ stroke-dashoffset: 0;}100%{ stroke-dashoffset: 0;}}@keyframes NisYwbtj_draw_12{14.37908496732026%{stroke-dashoffset: 88}42.15686274509803%{ stroke-dashoffset: 0;}100%{ stroke-dashoffset: 0;}}@keyframes NisYwbtj_draw_13{14.65141612200436%{stroke-dashoffset: 88}42.429193899782135%{ stroke-dashoffset: 0;}100%{ stroke-dashoffset: 0;}}@keyframes NisYwbtj_draw_14{14.923747276688454%{stroke-dashoffset: 88}42.70152505446623%{ stroke-dashoffset: 0;}100%{ stroke-dashoffset: 0;}}@keyframes NisYwbtj_draw_15{15.196078431372548%{stroke-dashoffset: 88}42.97385620915033%{ stroke-dashoffset: 0;}100%{ stroke-dashoffset: 0;}}@keyframes NisYwbtj_draw_16{15.468409586056644%{stroke-dashoffset: 88}43.24618736383442%{ stroke-dashoffset: 0;}100%{ stroke-dashoffset: 0;}}@keyframes NisYwbtj_draw_17{15.740740740740744%{stroke-dashoffset: 88}43.518518518518526%{ stroke-dashoffset: 0;}100%{ stroke-dashoffset: 0;}}@keyframes NisYwbtj_draw_18{16.013071895424837%{stroke-dashoffset: 88}43.790849673202615%{ stroke-dashoffset: 0;}100%{ stroke-dashoffset: 0;}}@keyframes NisYwbtj_draw_19{16.285403050108933%{stroke-dashoffset: 88}44.06318082788671%{ stroke-dashoffset: 0;}100%{ stroke-dashoffset: 0;}}@keyframes NisYwbtj_draw_20{16.55773420479303%{stroke-dashoffset: 1121}44.3355119825708%{ stroke-dashoffset: 0;}100%{ stroke-dashoffset: 0;}}@keyframes NisYwbtj_draw_21{16.83006535947712%{stroke-dashoffset: 1121}44.6078431372549%{ stroke-dashoffset: 0;}100%{ stroke-dashoffset: 0;}}@keyframes NisYwbtj_draw_22{17.10239651416122%{stroke-dashoffset: 128}44.880174291939%{ stroke-dashoffset: 0;}100%{ stroke-dashoffset: 0;}}@keyframes NisYwbtj_draw_23{17.374727668845317%{stroke-dashoffset: 128}45.152505446623096%{ stroke-dashoffset: 0;}100%{ stroke-dashoffset: 0;}}@keyframes NisYwbtj_draw_24{17.64705882352941%{stroke-dashoffset: 85}45.42483660130719%{ stroke-dashoffset: 0;}100%{ stroke-dashoffset: 0;}}@keyframes NisYwbtj_draw_25{17.91938997821351%{stroke-dashoffset: 85}45.69716775599128%{ stroke-dashoffset: 0;}100%{ stroke-dashoffset: 0;}}@keyframes NisYwbtj_draw_26{18.191721132897605%{stroke-dashoffset: 161}45.969498910675384%{ stroke-dashoffset: 0;}100%{ stroke-dashoffset: 0;}}@keyframes NisYwbtj_draw_27{18.4640522875817%{stroke-dashoffset: 161}46.24183006535948%{ stroke-dashoffset: 0;}100%{ stroke-dashoffset: 0;}}@keyframes NisYwbtj_draw_28{18.736383442265794%{stroke-dashoffset: 161}46.51416122004357%{ stroke-dashoffset: 0;}100%{ stroke-dashoffset: 0;}}@keyframes NisYwbtj_draw_29{19.00871459694989%{stroke-dashoffset: 161}46.786492374727665%{ stroke-dashoffset: 0;}100%{ stroke-dashoffset: 0;}}@keyframes NisYwbtj_draw_30{19.28104575163399%{stroke-dashoffset: 108}47.05882352941176%{ stroke-dashoffset: 0;}100%{ stroke-dashoffset: 0;}}@keyframes NisYwbtj_draw_31{19.553376906318086%{stroke-dashoffset: 108}47.331154684095864%{ stroke-dashoffset: 0;}100%{ stroke-dashoffset: 0;}}@keyframes NisYwbtj_draw_32{19.825708061002178%{stroke-dashoffset: 53}47.60348583877996%{ stroke-dashoffset: 0;}100%{ stroke-dashoffset: 0;}}@keyframes NisYwbtj_draw_33{20.098039215686274%{stroke-dashoffset: 53}47.875816993464056%{ stroke-dashoffset: 0;}100%{ stroke-dashoffset: 0;}}@keyframes NisYwbtj_draw_34{20.370370370370374%{stroke-dashoffset: 86}48.14814814814815%{ stroke-dashoffset: 0;}100%{ stroke-dashoffset: 0;}}@keyframes NisYwbtj_draw_35{20.64270152505447%{stroke-dashoffset: 86}48.42047930283225%{ stroke-dashoffset: 0;}100%{ stroke-dashoffset: 0;}}@keyframes NisYwbtj_draw_36{20.915032679738562%{stroke-dashoffset: 20}48.69281045751634%{ stroke-dashoffset: 0;}100%{ stroke-dashoffset: 0;}}@keyframes NisYwbtj_draw_37{21.187363834422655%{stroke-dashoffset: 20}48.96514161220043%{ stroke-dashoffset: 0;}100%{ stroke-dashoffset: 0;}}@keyframes NisYwbtj_draw_38{21.459694989106755%{stroke-dashoffset: 21}49.23747276688453%{ stroke-dashoffset: 0;}100%{ stroke-dashoffset: 0;}}@keyframes NisYwbtj_draw_39{21.73202614379085%{stroke-dashoffset: 21}49.50980392156863%{ stroke-dashoffset: 0;}100%{ stroke-dashoffset: 0;}}@keyframes NisYwbtj_draw_40{22.004357298474947%{stroke-dashoffset: 65}49.78213507625273%{ stroke-dashoffset: 0;}100%{ stroke-dashoffset: 0;}}@keyframes NisYwbtj_draw_41{22.276688453159043%{stroke-dashoffset: 65}50.054466230936825%{ stroke-dashoffset: 0;}100%{ stroke-dashoffset: 0;}}@keyframes NisYwbtj_draw_42{22.54901960784314%{stroke-dashoffset: 41}50.326797385620914%{ stroke-dashoffset: 0;}100%{ stroke-dashoffset: 0;}}@keyframes NisYwbtj_draw_43{22.821350762527235%{stroke-dashoffset: 41}50.599128540305%{ stroke-dashoffset: 0;}100%{ stroke-dashoffset: 0;}}@keyframes NisYwbtj_draw_44{23.093681917211327%{stroke-dashoffset: 41}50.871459694989106%{ stroke-dashoffset: 0;}100%{ stroke-dashoffset: 0;}}@keyframes NisYwbtj_draw_45{23.366013071895427%{stroke-dashoffset: 41}51.14379084967321%{ stroke-dashoffset: 0;}100%{ stroke-dashoffset: 0;}}@keyframes NisYwbtj_draw_46{23.638344226579523%{stroke-dashoffset: 41}51.4161220043573%{ stroke-dashoffset: 0;}100%{ stroke-dashoffset: 0;}}@keyframes NisYwbtj_draw_47{23.910675381263616%{stroke-dashoffset: 41}51.688453159041394%{ stroke-dashoffset: 0;}100%{ stroke-dashoffset: 0;}}@keyframes NisYwbtj_draw_48{24.18300653594771%{stroke-dashoffset: 41}51.96078431372548%{ stroke-dashoffset: 0;}100%{ stroke-dashoffset: 0;}}@keyframes NisYwbtj_draw_49{24.45533769063181%{stroke-dashoffset: 41}52.233115468409586%{ stroke-dashoffset: 0;}100%{ stroke-dashoffset: 0;}}@keyframes NisYwbtj_draw_50{24.727668845315907%{stroke-dashoffset: 482}52.50544662309369%{ stroke-dashoffset: 0;}100%{ stroke-dashoffset: 0;}}@keyframes NisYwbtj_draw_51{25%{stroke-dashoffset: 482}52.77777777777778%{ stroke-dashoffset: 0;}100%{ stroke-dashoffset: 0;}}</style></svg>
